<?xml version="1.0" standalone="yes"?>

<svg version="1.1" viewBox="0.0 0.0 337.62992125984255 215.30971128608923" fill="none" stroke="none" stroke-linecap="square" stroke-miterlimit="10" xmlns="http://www.w3.org/2000/svg" xmlns:xlink="http://www.w3.org/1999/xlink"><clipPath id="p.0"><path d="m0 0l337.6299 0l0 215.30971l-337.6299 0l0 -215.30971z" clip-rule="nonzero"></path></clipPath><g clip-path="url(#p.0)"><path fill="#000000" fill-opacity="0.0" d="m0 0l337.6299 0l0 215.30971l-337.6299 0z" fill-rule="evenodd"></path><path fill="#529fdb" d="m-5.257218 -2.6299212l346.23624 0l0 220.56694l-346.23624 0z" fill-rule="evenodd"></path><path stroke="#529fdb" stroke-width="1.0" stroke-linejoin="round" stroke-linecap="butt" d="m-5.257218 -2.6299212l346.23624 0l0 220.56694l-346.23624 0z" fill-rule="evenodd"></path><path fill="#ffffff" d="m97.4554 130.42964l0 0c0 -11.012535 8.497055 -19.939957 18.978699 -19.939957l0 0c5.03347 0 9.860779 2.1008072 13.419968 5.8402786c3.559204 3.7394638 5.5587463 8.811272 5.5587463 14.099678l0 0c0 11.012527 -8.497063 19.939957 -18.978714 19.939957l0 0c-10.481644 0 -18.978699 -8.927429 -18.978699 -19.939957z" fill-rule="evenodd"></path><path fill="#ffffff" d="m117.0705 106.966286l0 0c0 -13.622604 12.197151 -24.665901 27.243095 -24.665901l0 0c15.045929 0 27.243073 11.043297 27.243073 24.665901l0 0c0 13.622604 -12.197144 24.665901 -27.243073 24.665901l0 0c-15.045944 0 -27.243095 -11.043297 -27.243095 -24.665901z" fill-rule="evenodd"></path><path fill="#ffffff" d="m149.2157 95.133514l0 0c0 -16.67582 16.181168 -30.194244 36.141647 -30.194244l0 0c19.96048 0 36.141647 13.518425 36.141647 30.194244l0 0c0 16.675827 -16.181168 30.194252 -36.141647 30.194252l0 0c-19.96048 0 -36.141647 -13.518425 -36.141647 -30.194252z" fill-rule="evenodd"></path><path fill="#ffffff" d="m176.27744 123.52395l0 0c0 -14.826447 13.876831 -26.84565 30.994766 -26.84565l0 0c17.117935 0 30.994766 12.019203 30.994766 26.84565l0 0c0 14.826439 -13.876831 26.84565 -30.994766 26.84565l0 0c-17.117935 0 -30.994766 -12.019211 -30.994766 -26.84565z" fill-rule="evenodd"></path><path fill="#ffffff" d="m125.24254 120.17535l0 0c0 -16.67582 22.484467 -30.194244 50.220474 -30.194244l0 0c27.735992 0 50.22046 13.518425 50.22046 30.194244l0 0c0 16.67582 -22.484467 30.194252 -50.22046 30.194252l0 0c-27.736008 0 -50.220474 -13.518433 -50.220474 -30.194252z" fill-rule="evenodd"></path><path fill="#ffffff" d="m117.0705 133.18434l89.8935 0l0 17.185257l-89.8935 0z" fill-rule="evenodd"></path></g></svg>

