<?xml version="1.0" standalone="yes"?>

<svg version="1.1" viewBox="0.0 0.0 337.62992125984255 215.30971128608923" fill="none" stroke="none" stroke-linecap="square" stroke-miterlimit="10" xmlns="http://www.w3.org/2000/svg" xmlns:xlink="http://www.w3.org/1999/xlink"><clipPath id="p.0"><path d="m0 0l337.6299 0l0 215.30971l-337.6299 0l0 -215.30971z" clip-rule="nonzero"></path></clipPath><g clip-path="url(#p.0)"><path fill="#000000" fill-opacity="0.0" d="m0 0l337.6299 0l0 215.30971l-337.6299 0z" fill-rule="evenodd"></path><path fill="#529fdb" d="m-5.257218 -2.6299212l346.23624 0l0 220.56694l-346.23624 0z" fill-rule="evenodd"></path><path stroke="#529fdb" stroke-width="1.0" stroke-linejoin="round" stroke-linecap="butt" d="m-5.257218 -2.6299212l346.23624 0l0 220.56694l-346.23624 0z" fill-rule="evenodd"></path><path fill="#ffffff" d="m117.21099 124.33155l0 0c0 -8.064507 6.2279663 -14.602089 13.910561 -14.602089l0 0c3.6893005 0 7.2275085 1.5384293 9.836243 4.2768555c2.6087341 2.7384186 4.0743103 6.4525223 4.0743103 10.325233l0 0c0 8.064522 -6.2279816 14.602089 -13.910553 14.602089l0 0c-7.6825943 0 -13.910561 -6.537567 -13.910561 -14.602089z" fill-rule="evenodd"></path><path fill="#ffffff" d="m131.588 107.14927l0 0c0 -9.975876 8.939972 -18.06292 19.967987 -18.06292l0 0c11.028015 0 19.967972 8.087044 19.967972 18.06292l0 0c0 9.975868 -8.939957 18.062912 -19.967972 18.062912l0 0c-11.028015 0 -19.967987 -8.087044 -19.967987 -18.062912z" fill-rule="evenodd"></path><path fill="#ffffff" d="m155.14902 98.48409l0 0c0 -12.211754 11.860077 -22.111343 26.490234 -22.111343l0 0c14.630142 0 26.49022 9.89959 26.49022 22.111343l0 0c0 12.211754 -11.860077 22.111343 -26.49022 22.111343l0 0c-14.630157 0 -26.490234 -9.89959 -26.490234 -22.111343z" fill-rule="evenodd"></path><path fill="#ffffff" d="m174.98407 119.27449l0 0c0 -10.857452 10.171097 -19.65915 22.717789 -19.65915l0 0c12.546692 0 22.717804 8.801697 22.717804 19.65915l0 0c0 10.857452 -10.171112 19.65915 -22.717804 19.65915l0 0c-12.546692 0 -22.717789 -8.801697 -22.717789 -19.65915z" fill-rule="evenodd"></path><path fill="#ffffff" d="m137.57774 116.8223l0 0c0 -12.211761 16.480118 -22.111343 36.809387 -22.111343l0 0c20.32927 0 36.809387 9.899582 36.809387 22.111343l0 0c0 12.211754 -16.480118 22.111336 -36.809387 22.111336l0 0c-20.32927 0 -36.809387 -9.899582 -36.809387 -22.111336z" fill-rule="evenodd"></path><path fill="#ffffff" d="m131.588 126.34882l65.88797 0l0 12.584816l-65.88797 0z" fill-rule="evenodd"></path><path fill="#000000" fill-opacity="0.0" d="m128.16667 94.149605l92.25197 0l0 23.653542l-92.25197 0z" fill-rule="evenodd"></path><path fill="#529fdb" d="m142.10417 106.62148q1.15625 0 1.875 0.515625q0.734375 0.515625 0.734375 1.234375q0 0.53125 -0.359375 0.828125q-0.359375 0.28125 -0.984375 0.28125q0 -1.71875 -1.4375 -1.71875q-1.21875 0 -1.890625 1.0q-0.671875 0.984375 -0.671875 2.6875q0 1.703125 0.640625 2.609375q0.65625 0.90625 2.0625 0.90625q1.421875 0 2.5 -0.8125q0.21875 0.125 0.21875 0.421875q0 0.546875 -0.953125 1.0625q-0.9375 0.515625 -2.21875 0.515625q-1.96875 0 -2.984375 -1.21875q-1.0 -1.21875 -1.0 -3.421875q0 -2.21875 1.140625 -3.546875q1.140625 -1.34375 3.328125 -1.34375zm7.7734985 4.140625q-0.375 -0.71875 -1.078125 -0.71875q-0.6875 0 -1.078125 0.703125q-0.375 0.6875 -0.375 1.890625q0 1.1875 0.375 1.84375q0.390625 0.65625 1.078125 0.65625q0.703125 0 1.078125 -0.640625q0.375 -0.65625 0.375 -1.84375q0 -1.1875 -0.375 -1.890625zm-4.21875 1.9375q0 -1.703125 0.84375 -2.6875q0.84375 -1.0 2.34375 -1.0q1.515625 0 2.296875 0.953125q0.796875 0.953125 0.796875 2.625q0 1.671875 -0.859375 2.625q-0.84375 0.9375 -2.375 0.9375q-1.515625 0 -2.28125 -0.875q-0.765625 -0.890625 -0.765625 -2.578125zm18.723816 3.25l-2.953125 0l0 -0.109375q0 -0.734375 0.59375 -0.78125l0.390625 -0.03125l0 -3.28125q0 -0.765625 -0.328125 -1.078125q-0.3125 -0.3125 -1.015625 -0.3125q-0.703125 0 -1.40625 0.609375q0.09375 0.40625 0.09375 0.859375l0 3.171875l0.953125 0.09375q0.078125 0.859375 -0.609375 0.859375l-2.96875 0l0 -0.109375q0 -0.734375 0.578125 -0.78125l0.421875 -0.03125l0 -3.28125q0 -0.765625 -0.328125 -1.078125q-0.3125 -0.3125 -0.96875 -0.3125q-0.65625 0 -1.375 0.609375l0 4.03125l0.953125 0.09375q0.078125 0.859375 -0.59375 0.859375l-2.984375 0l0 -0.109375q0 -0.734375 0.59375 -0.78125l0.40625 -0.03125l0 -4.75l-0.515625 -0.0625q-0.546875 -0.046875 -0.5 -0.828125l2.421875 -0.28125l0.09375 0.8125l0.03125 0q0.359375 -0.3125 0.546875 -0.453125q0.203125 -0.15625 0.609375 -0.296875q0.40625 -0.15625 0.921875 -0.15625q0.515625 0 1.03125 0.265625q0.515625 0.265625 0.859375 0.796875q1.109375 -1.0625 2.1875 -1.0625q1.09375 0 1.796875 0.6875q0.71875 0.6875 0.71875 2.125l0 3.171875l0.9375 0.09375q0.046875 0.078125 0 0.359375q-0.125 0.5 -0.59375 0.5zm3.5403595 -6.15625q0.875 -0.78125 1.96875 -0.78125q1.09375 0 1.875 0.78125q0.796875 0.78125 0.828125 2.5q0.03125 1.703125 -0.828125 2.78125q-0.84375 1.078125 -2.484375 1.078125q-0.734375 0 -1.265625 -0.234375l0 1.984375l0.015625 0l0.9375 0.09375q0.078125 0.859375 -0.609375 0.859375l-2.96875 0l0 -0.109375q0 -0.734375 0.59375 -0.78125l0.40625 -0.03125l0 -7.65625l-0.5625 -0.078125q-0.421875 -0.046875 -0.421875 -0.796875l2.40625 -0.296875l0.109375 0.6875zm1.46875 5.28125q1.515625 0 1.515625 -2.5q0 -1.140625 -0.40625 -1.765625q-0.390625 -0.625 -1.109375 -0.625q-0.71875 0 -1.375 0.59375l0 3.765625q0.640625 0.53125 1.375 0.53125zm10.479828 0.28125q0 0.796875 -1.046875 0.796875q-1.03125 0 -1.34375 -0.703125q-0.84375 0.703125 -1.859375 0.703125q-1.0 0 -1.578125 -0.5q-0.578125 -0.5 -0.578125 -1.375q0 -0.875 0.671875 -1.4375q0.6875 -0.5625 2.140625 -0.5625q0.578125 0 1.09375 0.09375l0 -0.59375q0 -0.921875 -0.296875 -1.296875q-0.296875 -0.390625 -0.828125 -0.390625q-0.515625 0 -0.828125 0.328125q-0.3125 0.328125 -0.3125 0.90625q-0.53125 0.046875 -0.890625 -0.171875q-0.34375 -0.21875 -0.34375 -0.671875q0 -0.640625 0.65625 -1.046875q0.671875 -0.421875 1.734375 -0.421875q2.734375 0 2.734375 2.671875l0 3.5625l0.875 0.109375zm-2.5 -1.984375q-0.46875 -0.1875 -1.0 -0.1875q-0.53125 0 -0.875 0.25q-0.34375 0.25 -0.34375 0.703125q0 0.9375 0.953125 0.9375q0.6875 0 1.265625 -0.390625l0 -1.3125zm10.428299 2.578125l-2.953125 0l0 -0.109375q0 -0.734375 0.59375 -0.78125l0.390625 -0.03125l0 -3.28125q0 -0.765625 -0.3125 -1.078125q-0.296875 -0.3125 -0.84375 -0.3125q-0.546875 0 -0.90625 0.15625q-0.34375 0.140625 -0.71875 0.453125l0 4.03125l0.953125 0.09375q0.078125 0.859375 -0.59375 0.859375l-2.984375 0l0 -0.109375q0 -0.734375 0.59375 -0.78125l0.40625 -0.03125l0 -4.75l-0.515625 -0.0625q-0.546875 -0.046875 -0.5 -0.828125l2.421875 -0.28125l0.09375 0.8125l0.03125 0q0.5 -0.4375 0.953125 -0.671875q0.46875 -0.234375 1.09375 -0.234375q1.03125 0 1.734375 0.6875q0.71875 0.6875 0.71875 2.125l0 3.171875l0.9375 0.09375q0.09375 0.859375 -0.59375 0.859375zm4.2592926 0l-2.984375 0l0 -0.109375q0 -0.734375 0.59375 -0.78125l0.40625 -0.03125l0 -4.828125l-0.515625 -0.0625q-0.546875 -0.046875 -0.5 -0.828125l2.640625 -0.296875l0 5.984375l0.953125 0.09375q0.078125 0.859375 -0.59375 0.859375zm-0.28125 -8.515625q0 0.40625 -0.28125 0.703125q-0.28125 0.28125 -0.703125 0.28125q-0.421875 0 -0.71875 -0.28125q-0.28125 -0.296875 -0.28125 -0.703125q0 -0.421875 0.28125 -0.703125q0.296875 -0.28125 0.703125 -0.28125q0.421875 0 0.703125 0.28125q0.296875 0.28125 0.296875 0.703125zm3.2829132 5.25l0 0.140625q0 1.078125 0.390625 1.609375q0.40625 0.53125 1.359375 0.53125q0.96875 0 1.90625 -0.734375q0.265625 0.203125 0.265625 0.625q0 0.40625 -0.75 0.859375q-0.734375 0.4375 -1.84375 0.4375q-1.4375 0 -2.234375 -0.84375q-0.78125 -0.859375 -0.78125 -2.578125q0 -1.71875 0.859375 -2.71875q0.859375 -1.0 2.359375 -1.0q1.28125 0 1.90625 0.8125q0.640625 0.796875 0.609375 2.09375l0 0.765625l-4.046875 0zm1.390625 -2.59375q-1.09375 0 -1.328125 1.671875l2.4375 0q-0.03125 -0.90625 -0.3125 -1.28125q-0.28125 -0.390625 -0.796875 -0.390625zm7.842804 -0.578125q0.34375 0.296875 0.34375 0.765625q0 0.453125 -0.3125 0.71875q-0.296875 0.25 -0.765625 0.1875q0 -0.5 -0.390625 -0.828125q-0.375 -0.34375 -0.859375 -0.34375q-0.46875 0 -0.71875 0.1875q-0.25 0.171875 -0.25 0.46875q0 0.28125 0.359375 0.515625q0.375 0.234375 1.046875 0.5q0.671875 0.265625 0.96875 0.421875q0.296875 0.15625 0.625 0.40625q0.640625 0.484375 0.640625 1.421875q0 0.9375 -0.765625 1.578125q-0.75 0.640625 -2.015625 0.640625q-0.9375 0 -1.640625 -0.34375q-0.703125 -0.359375 -0.703125 -1.046875q0 -0.46875 0.328125 -0.71875q0.34375 -0.265625 0.796875 -0.265625q0.171875 1.359375 1.546875 1.359375q1.109375 0 1.109375 -0.734375q0 -0.484375 -0.59375 -0.765625q-0.3125 -0.1875 -0.765625 -0.359375q-0.453125 -0.171875 -0.71875 -0.296875q-0.265625 -0.125 -0.578125 -0.3125q-0.296875 -0.203125 -0.5 -0.421875q-0.4375 -0.5 -0.4375 -1.203125q0 -0.953125 0.765625 -1.484375q0.78125 -0.546875 1.859375 -0.546875q1.078125 0 1.625 0.5z" fill-rule="nonzero"></path></g></svg>

