<?xml version="1.0" standalone="yes"?>

<svg version="1.1" viewBox="0.0 0.0 928.1601049868766 590.9763779527559" fill="none" stroke="none" stroke-linecap="square" stroke-miterlimit="10" xmlns="http://www.w3.org/2000/svg" xmlns:xlink="http://www.w3.org/1999/xlink"><clipPath id="p.0"><path d="m0 0l928.1601 0l0 590.9764l-928.1601 0l0 -590.9764z" clip-rule="nonzero"></path></clipPath><g clip-path="url(#p.0)"><path fill="#000000" fill-opacity="0.0" d="m0 0l928.1601 0l0 590.9764l-928.1601 0z" fill-rule="evenodd"></path><path fill="#ffffff" d="m365.13647 211.50291l0 0c0 -95.19244 93.50589 -172.36116 208.85126 -172.36116l0 0c115.3454 0 208.85126 77.168724 208.85126 172.36116l0 0c0 95.19246 -93.50586 172.36116 -208.85126 172.36116l0 0c-115.34537 0 -208.85126 -77.1687 -208.85126 -172.36116z" fill-rule="evenodd"></path><path stroke="#ffffff" stroke-width="1.0" stroke-linejoin="round" stroke-linecap="butt" d="m365.13647 211.50291l0 0c0 -95.19244 93.50589 -172.36116 208.85126 -172.36116l0 0c115.3454 0 208.85126 77.168724 208.85126 172.36116l0 0c0 95.19246 -93.50586 172.36116 -208.85126 172.36116l0 0c-115.34537 0 -208.85126 -77.1687 -208.85126 -172.36116z" fill-rule="evenodd"></path><path fill="#ffffff" d="m155.68999 281.72842l0 0c0 -86.98892 74.503204 -157.50739 166.40755 -157.50739l0 0c44.134033 0 86.46045 16.594475 117.66791 46.13285c31.207489 29.53836 48.739655 69.601 48.739655 111.37454l0 0c0 86.98895 -74.503204 157.50742 -166.40756 157.50742l0 0c-91.90434 0 -166.40755 -70.51846 -166.40755 -157.50742z" fill-rule="evenodd"></path><path stroke="#ffffff" stroke-width="1.0" stroke-linejoin="round" stroke-linecap="butt" d="m155.68999 281.72842l0 0c0 -86.98892 74.503204 -157.50739 166.40755 -157.50739l0 0c44.134033 0 86.46045 16.594475 117.66791 46.13285c31.207489 29.53836 48.739655 69.601 48.739655 111.37454l0 0c0 86.98895 -74.503204 157.50742 -166.40756 157.50742l0 0c-91.90434 0 -166.40755 -70.51846 -166.40755 -157.50742z" fill-rule="evenodd"></path><path fill="#ffffff" d="m47.244656 426.79895l0 0c0 -68.895294 55.888165 -124.74597 124.82971 -124.74597l0 0c33.106903 0 64.857834 13.142822 88.267944 36.53723c23.410095 23.39441 36.561768 55.124054 36.561768 88.20874l0 0c0 68.895325 -55.88817 124.74597 -124.82971 124.74597l0 0c-68.94155 0 -124.82971 -55.850647 -124.82971 -124.74597z" fill-rule="evenodd"></path><path stroke="#ffffff" stroke-width="1.0" stroke-linejoin="round" stroke-linecap="butt" d="m47.244656 426.79895l0 0c0 -68.895294 55.888165 -124.74597 124.82971 -124.74597l0 0c33.106903 0 64.857834 13.142822 88.267944 36.53723c23.410095 23.39441 36.561768 55.124054 36.561768 88.20874l0 0c0 68.895325 -55.88817 124.74597 -124.82971 124.74597l0 0c-68.94155 0 -124.82971 -55.850647 -124.82971 -124.74597z" fill-rule="evenodd"></path><path fill="#ffffff" d="m545.98627 386.8665l0 0c0 -90.94498 72.22748 -164.67046 161.32458 -164.67046l0 0c42.78595 0 83.81946 17.349152 114.07367 48.23085c30.254272 30.881714 47.250916 72.7663 47.250916 116.439606l0 0c0 90.94501 -72.22748 164.6705 -161.32458 164.6705l0 0c-89.09711 0 -161.32458 -73.725494 -161.32458 -164.6705z" fill-rule="evenodd"></path><path stroke="#ffffff" stroke-width="1.0" stroke-linejoin="round" stroke-linecap="butt" d="m545.98627 386.8665l0 0c0 -90.94498 72.22748 -164.67046 161.32458 -164.67046l0 0c42.78595 0 83.81946 17.349152 114.07367 48.23085c30.254272 30.881714 47.250916 72.7663 47.250916 116.439606l0 0c0 90.94501 -72.22748 164.6705 -161.32458 164.6705l0 0c-89.09711 0 -161.32458 -73.725494 -161.32458 -164.6705z" fill-rule="evenodd"></path><path fill="#ffffff" d="m168.34364 392.897l542.2276 0l0 158.64261l-542.2276 0z" fill-rule="evenodd"></path><path stroke="#ffffff" stroke-width="1.0" stroke-linejoin="round" stroke-linecap="butt" d="m168.34364 392.897l542.2276 0l0 158.64261l-542.2276 0z" fill-rule="evenodd"></path><path fill="#ffffff" d="m205.20729 307.54517l542.2276 0l0 158.64264l-542.2276 0z" fill-rule="evenodd"></path><path stroke="#ffffff" stroke-width="1.0" stroke-linejoin="round" stroke-linecap="butt" d="m205.20729 307.54517l542.2276 0l0 158.64264l-542.2276 0z" fill-rule="evenodd"></path></g></svg>

