<svg version="1.1" viewBox="0.0 0.0 961.3412073490814 470.61417322834643" fill="none" stroke="none" stroke-linecap="square" stroke-miterlimit="10" xmlns:xlink="http://www.w3.org/1999/xlink" xmlns="http://www.w3.org/2000/svg"><clipPath id="p.0"><path d="m0 0l961.3412 0l0 470.61417l-961.3412 0l0 -470.61417z" clip-rule="nonzero"/></clipPath><g clip-path="url(#p.0)"><path fill="#000000" fill-opacity="0.0" d="m0 0l961.3412 0l0 470.61417l-961.3412 0z" fill-rule="evenodd"/><path fill="#529fdb" d="m650.7218 103.367455l14.929138 0l0 313.29132l-14.929138 0z" fill-rule="evenodd"/><path fill="#529fdb" d="m468.8399 -49.425198l14.929138 0l0 285.70078l-14.929138 0z" fill-rule="evenodd"/><path fill="#529fdb" d="m286.958 103.367455l14.929138 0l0 313.29132l-14.929138 0z" fill-rule="evenodd"/><path fill="#ffffff" d="m154.54521 14.14254l0 0c0 -59.470974 39.27809 -107.681725 87.73006 -107.681725l0 0c23.267456 0 45.58194 11.345001 62.034515 31.539246c16.452576 20.19424 25.695557 47.58351 25.695557 76.14248l0 0c0 59.470978 -39.278107 107.681725 -87.73007 107.681725l0 0c-48.451965 0 -87.73006 -48.210747 -87.73006 -107.681725z" fill-rule="evenodd"/><path fill="#ffffff" d="m245.2171 -112.5666l0 0c0 -73.566124 56.381927 -133.20325 125.93259 -133.20325l0 0c33.399384 0 65.43085 14.0338745 89.04779 39.014328c23.616943 24.980453 36.884796 58.86122 36.884796 94.18893l0 0c0 73.566124 -56.381927 133.20325 -125.93259 133.20325l0 0c-69.55066 0 -125.93259 -59.637127 -125.93259 -133.20325z" fill-rule="evenodd"/><path fill="#ffffff" d="m393.80994 -176.46709l0 0c0 -90.05443 74.79831 -163.05797 167.06665 -163.05797l0 0c44.308838 0 86.80292 17.17926 118.13397 47.758575c31.331116 30.579315 48.93268 72.05374 48.93268 115.29939l0 0c0 90.054436 -74.79828 163.05798 -167.06665 163.05798l0 0c-92.26834 0 -167.06665 -73.00355 -167.06665 -163.05798z" fill-rule="evenodd"/><path fill="#ffffff" d="m518.90424 -23.150276l0 0c0 -80.06723 64.14636 -144.97455 143.2749 -144.97455l0 0c37.9989 0 74.44141 15.274063 101.31067 42.46206c26.869263 27.188004 41.964294 64.06284 41.964294 102.51248l0 0c0 80.06723 -64.14636 144.97455 -143.27496 144.97455l0 0c-79.12854 0 -143.2749 -64.90731 -143.2749 -144.97455z" fill-rule="evenodd"/><path fill="#ffffff" d="m282.99277 -41.233707l0 0c0 -90.05444 103.93564 -163.05798 232.14676 -163.05798l0 0c128.21106 0 232.14673 73.00354 232.14673 163.05798l0 0c0 90.05443 -103.93567 163.05797 -232.14673 163.05797l0 0c-128.21112 0 -232.14676 -73.00354 -232.14676 -163.05797z" fill-rule="evenodd"/><path fill="#ffffff" d="m245.2171 29.018723l415.5374 0l0 92.80554l-415.5374 0z" fill-rule="evenodd"/><path fill="#000000" fill-opacity="0.0" d="m356.54068 51.43832l239.52756 0l0 32.976376l-239.52756 0z" fill-rule="evenodd"/><path fill="#529fdb" d="m380.953 69.23645l7.5 0q11.1875 0 11.1875 10.84375q0 5.375 -2.90625 8.234375q-2.90625 2.84375 -8.125 2.84375l-9.3125 0q-0.09375 -0.765625 0.171875 -1.40625q0.28125 -0.640625 0.953125 -0.703125l1.140625 -0.125l0 -17.40625l-0.03125 0l-2.234375 -0.203125q-0.03125 -1.109375 0.3125 -1.59375q0.359375 -0.484375 1.34375 -0.484375zm6.6875 19.71875q4.140625 0.25 5.984375 -1.828125q1.859375 -2.078125 1.859375 -6.890625q0 -4.828125 -1.90625 -6.890625q-1.890625 -2.0625 -6.21875 -1.90625l-1.796875 0.078125l0 17.296875l2.078125 0.140625zm18.315308 -5.640625l0 0.359375q0 2.59375 0.9375 3.859375q0.953125 1.25 3.265625 1.25q2.328125 0 4.5625 -1.75q0.640625 0.484375 0.640625 1.5q0 1.0 -1.78125 2.0625q-1.765625 1.046875 -4.421875 1.046875q-3.46875 0 -5.375 -2.03125q-1.890625 -2.03125 -1.890625 -6.171875q0 -4.15625 2.0625 -6.53125q2.0625 -2.390625 5.671875 -2.390625q3.078125 0 4.59375 1.921875q1.515625 1.921875 1.453125 5.0625l0 1.8125l-9.71875 0zm3.328125 -6.234375q-2.625 0 -3.171875 4.03125l5.828125 0q-0.0625 -2.171875 -0.734375 -3.09375q-0.671875 -0.9375 -1.921875 -0.9375zm13.857147 -0.703125q2.078125 -1.859375 4.71875 -1.859375q2.640625 0 4.515625 1.875q1.890625 1.875 1.953125 5.96875q0.078125 4.09375 -1.96875 6.6875q-2.03125 2.59375 -5.953125 2.59375q-1.765625 0 -3.046875 -0.546875l0 4.765625l0.03125 0l2.234375 0.1875q0.203125 2.078125 -1.4375 2.078125l-7.125 0l0 -0.25q0 -1.765625 1.40625 -1.890625l0.984375 -0.0625l0 -18.390625l-1.375 -0.171875q-0.984375 -0.125 -0.984375 -1.921875l5.75 -0.734375l0.296875 1.671875zm3.515625 12.671875q3.609375 0 3.609375 -5.984375q0 -2.75 -0.9375 -4.25q-0.9375 -1.515625 -2.671875 -1.515625q-1.734375 0 -3.296875 1.4375l0 9.03125q1.53125 1.28125 3.296875 1.28125zm16.955933 2.109375l-7.125 0l0 -0.25q0 -1.765625 1.40625 -1.890625l0.984375 -0.0625l0 -17.859375l-1.25 -0.125q-1.3125 -0.125 -1.1875 -1.984375l6.34375 -0.703125l0 20.609375l2.265625 0.1875q0.203125 2.078125 -1.4375 2.078125zm13.301758 -12.46875q-0.90625 -1.703125 -2.578125 -1.703125q-1.65625 0 -2.578125 1.671875q-0.90625 1.65625 -0.90625 4.515625q0 2.859375 0.90625 4.453125q0.921875 1.578125 2.578125 1.578125q1.671875 0 2.578125 -1.546875q0.90625 -1.5625 0.90625 -4.421875q0 -2.859375 -0.90625 -4.546875zm-10.125 4.640625q0 -4.078125 2.03125 -6.4375q2.03125 -2.375 5.640625 -2.375q3.625 0 5.515625 2.28125q1.90625 2.265625 1.90625 6.28125q0 4.015625 -2.046875 6.296875q-2.046875 2.265625 -5.71875 2.265625q-3.65625 0 -5.5 -2.109375q-1.828125 -2.125 -1.828125 -6.203125zm28.79718 -8.328125l4.578125 0q0 0 0 0.25q0 1.671875 -1.40625 1.890625l-0.140625 0.03125l-5.3125 12.890625l0.046875 0q-0.171875 0.359375 -0.59375 1.34375q-0.40625 1.0 -0.59375 1.390625q-0.171875 0.40625 -0.59375 1.265625q-0.40625 0.875 -0.671875 1.265625q-0.25 0.40625 -0.671875 1.046875q-0.40625 0.640625 -0.78125 0.9375q-0.359375 0.3125 -0.84375 0.65625q-0.859375 0.640625 -2.171875 0.640625q-1.3125 0 -2.109375 -0.671875q-0.796875 -0.671875 -0.796875 -1.65625q0 -0.96875 0.5625 -1.5625q0.578125 -0.59375 1.28125 -0.59375q0.71875 0 0.875 0.078125q-0.359375 1.6875 0.734375 1.6875q0.921875 0 1.953125 -2.0q1.046875 -2.0 1.6875 -4.078125l-5.65625 -12.546875l-0.15625 0l-1.765625 -0.1875q-0.09375 -0.1875 0.03125 -0.859375q0.296875 -1.21875 1.40625 -1.21875l6.625 0q-0.09375 1.1875 -0.28125 1.46875q-0.484375 0.546875 -1.125 0.671875l-0.34375 0.0625l3.21875 8.0l3.078125 -7.96875l-1.5 -0.15625q-0.203125 -2.078125 1.4375 -2.078125zm33.30829 16.15625l-7.078125 0l0 -0.25q0 -1.765625 1.421875 -1.890625l0.921875 -0.0625l0 -7.875q0 -1.859375 -0.765625 -2.609375q-0.765625 -0.75 -2.453125 -0.75q-1.671875 0 -3.375 1.46875q0.21875 1.0 0.21875 2.046875l0 7.65625l2.28125 0.1875q0.1875 2.078125 -1.4375 2.078125l-7.140625 0l0 -0.25q0 -1.765625 1.40625 -1.890625l1.0 -0.0625l0 -7.875q0 -1.859375 -0.78125 -2.609375q-0.765625 -0.75 -2.328125 -0.75q-1.5625 0 -3.296875 1.46875l0 9.703125l2.265625 0.1875q0.203125 2.078125 -1.4375 2.078125l-7.125 0l0 -0.25q0 -1.765625 1.40625 -1.890625l0.984375 -0.0625l0 -11.421875l-1.25 -0.140625q-1.3125 -0.125 -1.1875 -1.984375l5.796875 -0.703125l0.234375 1.953125l0.09375 0q0.828125 -0.734375 1.296875 -1.078125q0.484375 -0.359375 1.453125 -0.703125q0.984375 -0.359375 2.21875 -0.359375q1.234375 0 2.484375 0.625q1.25 0.625 2.046875 1.90625q2.65625 -2.53125 5.265625 -2.53125q2.609375 0 4.3125 1.65625q1.71875 1.640625 1.71875 5.0625l0 7.65625l2.265625 0.1875q0.09375 0.1875 -0.03125 0.859375q-0.28125 1.21875 -1.40625 1.21875zm7.237152 -7.84375l0 0.359375q0 2.59375 0.9375 3.859375q0.953125 1.25 3.265625 1.25q2.328125 0 4.5625 -1.75q0.640625 0.484375 0.640625 1.5q0 1.0 -1.78125 2.0625q-1.765625 1.046875 -4.421875 1.046875q-3.46875 0 -5.375 -2.03125q-1.890625 -2.03125 -1.890625 -6.171875q0 -4.15625 2.0625 -6.53125q2.0625 -2.390625 5.671875 -2.390625q3.078125 0 4.59375 1.921875q1.515625 1.921875 1.453125 5.0625l0 1.8125l-9.71875 0zm3.328125 -6.234375q-2.625 0 -3.171875 4.03125l5.828125 0q-0.0625 -2.171875 -0.734375 -3.09375q-0.671875 -0.9375 -1.921875 -0.9375zm26.107178 14.078125l-7.078125 0l0 -0.25q0 -1.765625 1.421875 -1.890625l0.921875 -0.0625l0 -7.875q0 -1.859375 -0.734375 -2.609375q-0.734375 -0.75 -2.046875 -0.75q-1.3125 0 -2.15625 0.359375q-0.828125 0.34375 -1.71875 1.109375l0 9.703125l2.265625 0.1875q0.203125 2.078125 -1.4375 2.078125l-7.125 0l0 -0.25q0 -1.765625 1.40625 -1.890625l0.984375 -0.0625l0 -11.421875l-1.25 -0.140625q-1.3125 -0.125 -1.1875 -1.984375l5.796875 -0.703125l0.234375 1.953125l0.09375 0q1.171875 -1.015625 2.28125 -1.578125q1.109375 -0.5625 2.609375 -0.5625q2.46875 0 4.171875 1.65625q1.71875 1.640625 1.71875 5.0625l0 7.65625l2.265625 0.1875q0.203125 2.078125 -1.4375 2.078125zm8.705566 -13.921875l0 8.859375q0 2.59375 1.65625 2.59375q1.21875 0 2.03125 -0.3125q0.828125 -0.328125 1.75 -1.09375q0.15625 0 0.40625 0.421875q0.265625 0.40625 0.265625 0.890625q0 1.25 -1.765625 2.15625q-1.75 0.890625 -3.421875 0.890625q-1.65625 0 -2.625 -0.46875q-0.953125 -0.46875 -1.4375 -1.359375q-0.765625 -1.46875 -0.765625 -3.90625l0 -8.671875l-2.65625 0q0 -2.234375 1.5625 -2.234375l1.09375 0l0 -4.09375l3.90625 -0.421875l0 4.515625l5.765625 0q0.0625 0.46875 -0.109375 1.078125q-0.28125 1.15625 -1.46875 1.15625l-4.1875 0zm17.91687 -1.53125q0.796875 0.703125 0.796875 1.828125q0 1.109375 -0.71875 1.71875q-0.71875 0.609375 -1.828125 0.453125q0 -1.1875 -0.9375 -2.0q-0.921875 -0.8125 -2.0625 -0.8125q-1.140625 0 -1.75 0.4375q-0.59375 0.421875 -0.59375 1.125q0 0.703125 0.875 1.265625q0.875 0.5625 2.484375 1.203125q1.625 0.640625 2.328125 1.015625q0.703125 0.359375 1.5 0.96875q1.546875 1.140625 1.546875 3.40625q0 2.25 -1.828125 3.796875q-1.828125 1.53125 -4.859375 1.53125q-2.25 0 -3.9375 -0.828125q-1.671875 -0.84375 -1.671875 -2.5q0 -1.125 0.796875 -1.75q0.8125 -0.625 1.890625 -0.625q0.421875 3.265625 3.71875 3.265625q2.65625 0 2.65625 -1.765625q0 -1.140625 -1.40625 -1.84375q-0.765625 -0.421875 -1.859375 -0.828125q-1.09375 -0.421875 -1.71875 -0.71875q-0.625 -0.3125 -1.359375 -0.796875q-0.734375 -0.484375 -1.21875 -0.984375q-1.046875 -1.1875 -1.046875 -2.890625q0 -2.296875 1.84375 -3.578125q1.859375 -1.28125 4.453125 -1.28125q2.59375 0 3.90625 1.1875z" fill-rule="nonzero"/></g></svg>