<svg version="1.1" viewBox="0.0 0.0 462.4409448818898 425.6089238845144" fill="none" stroke="none" stroke-linecap="square" stroke-miterlimit="10" xmlns:xlink="http://www.w3.org/1999/xlink" xmlns="http://www.w3.org/2000/svg"><clipPath id="p.0"><path d="m0 0l462.44095 0l0 425.60892l-462.44095 0l0 -425.60892z" clip-rule="nonzero"/></clipPath><g clip-path="url(#p.0)"><path fill="#000000" fill-opacity="0.0" d="m0 0l462.44095 0l0 425.60892l-462.44095 0z" fill-rule="evenodd"/><path fill="#529fdb" d="m59.69627 99.6924l0 0c0 -39.17439 38.63966 -70.9315 86.30409 -70.9315l0 0c47.66443 0 86.30409 31.757118 86.30409 70.9315l0 0c0 39.174393 -38.639664 70.9315 -86.30409 70.9315l0 0c-47.664436 0 -86.30409 -31.75711 -86.30409 -70.9315z" fill-rule="evenodd"/><path fill="#529fdb" d="m191.95303 81.12582l0 0c0 -45.084053 44.514374 -81.631905 99.42563 -81.631905l0 0c54.911224 0 99.4256 36.547848 99.4256 81.631905l0 0c0 45.08406 -44.514374 81.631905 -99.4256 81.631905l0 0c-54.911255 0 -99.42563 -36.547844 -99.42563 -81.631905z" fill-rule="evenodd"/><path fill="#529fdb" d="m289.494 195.25441l0 0c0 -45.08406 38.63968 -81.631905 86.30411 -81.631905l0 0c22.889252 0 44.841034 8.600479 61.026184 23.909431c16.18518 15.308945 25.277893 36.072342 25.277893 57.722473l0 0c0 45.08406 -38.63965 81.63191 -86.30408 81.63191l0 0c-47.66443 0 -86.30411 -36.54785 -86.30411 -81.63191z" fill-rule="evenodd"/><path fill="#529fdb" d="m-0.3364238 195.25441l0 0c0 -45.08406 38.639656 -81.631905 86.30409 -81.631905l0 0c22.889267 0 44.84105 8.600479 61.026215 23.909431c16.18515 15.308945 25.277878 36.072342 25.277878 57.722473l0 0c0 45.08406 -38.639664 81.63191 -86.30409 81.63191l0 0c-47.664433 0 -86.30409 -36.54785 -86.30409 -81.63191z" fill-rule="evenodd"/><path fill="#529fdb" d="m90.64973 189.02597l281.41537 0l0 87.8725l-281.41537 0z" fill-rule="evenodd"/><path fill="#529fdb" d="m98.61964 126.773346l281.41537 0l0 87.8725l-281.41537 0z" fill-rule="evenodd"/><path fill="#ffffff" d="m335.1312 368.19437l0 0c0 30.78424 -46.664154 55.739807 -104.227325 55.739807c-57.563156 0 -104.22732 -24.955566 -104.22732 -55.739807l27.86988 0c0 15.39212 34.1864 27.869904 76.35744 27.869904c42.17105 0 76.35745 -12.477783 76.35745 -27.869904z" fill-rule="evenodd"/><path fill="#ffffff" d="m308.5858 337.39398l0 0c0 23.908478 -34.779938 43.29013 -77.68318 43.29013c-42.903244 0 -77.6832 -19.381653 -77.6832 -43.29013l21.645065 0l0 0c0 11.954224 25.089127 21.64505 56.03813 21.64505c30.94899 0 56.03813 -9.690826 56.03813 -21.64505z" fill-rule="evenodd"/><path fill="#ffffff" d="m276.0191 309.9866l0 0c0 18.268616 -20.1996 33.078247 -45.117096 33.078247c-24.917496 0 -45.11711 -14.809631 -45.11711 -33.078247l16.539139 0l0 0c0 9.134308 12.7948 16.539124 28.577972 16.539124c15.783173 0 28.577972 -7.4048157 28.577972 -16.539124z" fill-rule="evenodd"/><path fill="#ffffff" d="m241.93881 296.51837l0 0c0 5.4135437 -4.207367 9.802124 -9.397415 9.802124l0 0c-2.4923553 0 -4.882614 -1.0327148 -6.6449738 -2.8709717c-1.7623596 -1.8382568 -2.7524414 -4.331482 -2.7524414 -6.9311523l0 0c0 -5.413574 4.207367 -9.802155 9.397415 -9.802155l0 0c5.190048 0 9.397415 4.3885803 9.397415 9.802155z" fill-rule="evenodd"/></g></svg>