<?xml version="1.0" standalone="yes"?>

<svg version="1.1" viewBox="0.0 0.0 337.62992125984255 215.30971128608923" fill="none" stroke="none" stroke-linecap="square" stroke-miterlimit="10" xmlns="http://www.w3.org/2000/svg" xmlns:xlink="http://www.w3.org/1999/xlink"><clipPath id="p.0"><path d="m0 0l337.6299 0l0 215.30971l-337.6299 0l0 -215.30971z" clip-rule="nonzero"></path></clipPath><g clip-path="url(#p.0)"><path fill="#000000" fill-opacity="0.0" d="m0 0l337.6299 0l0 215.30971l-337.6299 0z" fill-rule="evenodd"></path><path fill="#529fdb" d="m-5.257218 -2.6299212l346.23624 0l0 220.56694l-346.23624 0z" fill-rule="evenodd"></path><path stroke="#529fdb" stroke-width="1.0" stroke-linejoin="round" stroke-linecap="butt" d="m-5.257218 -2.6299212l346.23624 0l0 220.56694l-346.23624 0z" fill-rule="evenodd"></path><path fill="#ffffff" d="m22.108051 158.39287l0 0c0 -24.533905 17.705704 -44.42256 39.546803 -44.42256l0 0c10.488464 0 20.547348 4.6802216 27.963806 13.011063c7.4164658 8.330856 11.582993 19.629898 11.582993 31.411499l0 0c0 24.533905 -17.705704 44.42256 -39.5468 44.42256l0 0c-21.841099 0 -39.546803 -19.888657 -39.546803 -44.42256z" fill-rule="evenodd"></path><path fill="#ffffff" d="m62.98096 106.12082l0 0c0 -30.348663 25.415752 -54.951107 56.767673 -54.951107l0 0c15.055717 0 29.494804 5.7894745 40.1408 16.094807c10.646011 10.305328 16.626877 24.282356 16.626877 38.8563l0 0c0 30.348648 -25.415756 54.951096 -56.767677 54.951096l0 0c-31.351921 0 -56.767673 -24.602448 -56.767673 -54.951096z" fill-rule="evenodd"></path><path fill="#ffffff" d="m129.96338 79.75958l0 0c0 -37.150677 33.717453 -67.26725 75.31003 -67.26725l0 0c41.592575 0 75.31003 30.116573 75.31003 67.26725l0 0c0 37.150673 -33.717453 67.26724 -75.31003 67.26724l0 0c-41.592575 0 -75.31003 -30.11657 -75.31003 -67.26724z" fill-rule="evenodd"></path><path fill="#ffffff" d="m186.35316 143.00824l0 0c0 -33.030586 28.915787 -59.807175 64.58522 -59.807175l0 0c35.669434 0 64.585236 26.776588 64.585236 59.807175l0 0c0 33.03061 -28.915802 59.80719 -64.585236 59.80719l0 0c-35.669434 0 -64.58522 -26.77658 -64.58522 -59.80719z" fill-rule="evenodd"></path><path fill="#ffffff" d="m80.00941 135.54819l0 0c0 -37.15068 46.85193 -67.26725 104.646706 -67.26725l0 0c57.794785 0 104.64671 30.11657 104.64671 67.26725l0 0c0 37.150665 -46.85193 67.26724 -104.64671 67.26724l0 0c-57.794777 0 -104.646706 -30.116577 -104.646706 -67.26724z" fill-rule="evenodd"></path><path fill="#ffffff" d="m62.98096 164.52983l187.31525 0l0 38.2856l-187.31525 0z" fill-rule="evenodd"></path></g></svg>

