<?xml version="1.0" standalone="yes"?>

<svg version="1.1" viewBox="0.0 0.0 960.3018372703413 520.503937007874" fill="none" stroke="none" stroke-linecap="square" stroke-miterlimit="10" xmlns="http://www.w3.org/2000/svg" xmlns:xlink="http://www.w3.org/1999/xlink"><clipPath id="p.0"><path d="m0 0l960.3018 0l0 520.50397l-960.3018 0l0 -520.50397z" clip-rule="nonzero"></path></clipPath><g clip-path="url(#p.0)"><path fill="#000000" fill-opacity="0.0" d="m0 0l960.3018 0l0 520.50397l-960.3018 0z" fill-rule="evenodd"></path><path fill="#434343" d="m-30.104986 -9.068241l1023.0551 0l0 536.7874l-1023.0551 0z" fill-rule="evenodd"></path><path fill="#529fdb" d="m115.427025 141.35693l0 0c0 -39.147957 38.396645 -70.883644 85.7613 -70.883644l0 0c47.364655 0 85.76129 31.735687 85.76129 70.883644l0 0c0 39.147964 -38.396637 70.88365 -85.76129 70.88365l0 0c-47.364655 0 -85.7613 -31.735687 -85.7613 -70.88365z" fill-rule="evenodd"></path><path fill="#529fdb" d="m246.85579 122.802505l0 0c0 -45.053024 44.238113 -81.575714 98.80858 -81.575714l0 0c54.570465 0 98.80859 36.522694 98.80859 81.575714l0 0c0 45.053024 -44.23813 81.575714 -98.80859 81.575714l0 0c-54.570465 0 -98.80858 -36.52269 -98.80858 -81.575714z" fill-rule="evenodd"></path><path fill="#529fdb" d="m343.78607 236.85126l0 0c0 -45.053024 38.396667 -81.575714 85.76132 -81.575714l0 0c22.7453 0 44.55902 8.594559 60.642395 23.892975c16.083344 15.298416 25.118866 36.047516 25.118866 57.68274l0 0c0 45.05304 -38.396606 81.575714 -85.76126 81.575714l0 0c-47.364655 0 -85.76132 -36.522675 -85.76132 -81.575714z" fill-rule="evenodd"></path><path fill="#529fdb" d="m55.770164 236.85126l0 0c0 -45.053024 38.396645 -81.575714 85.7613 -81.575714l0 0c22.745316 0 44.559036 8.594559 60.642395 23.892975c16.083359 15.298416 25.118912 36.047516 25.118912 57.68274l0 0c0 45.05304 -38.396652 81.575714 -85.76131 81.575714l0 0c-47.364655 0 -85.7613 -36.522675 -85.7613 -81.575714z" fill-rule="evenodd"></path><path fill="#529fdb" d="m146.18669 230.62627l279.64557 0l0 87.80626l-279.64557 0z" fill-rule="evenodd"></path><path fill="#529fdb" d="m154.1067 168.41719l279.64557 0l0 87.80626l-279.64557 0z" fill-rule="evenodd"></path><path fill="#ffffff" d="m389.13757 409.6617l0 0c0 30.766907 -46.37433 55.708405 -103.579956 55.708405c-57.205627 0 -103.57994 -24.941498 -103.57994 -55.708405l27.854202 0c0 15.383453 33.903564 27.854218 75.72574 27.854218c41.822174 0 75.72577 -12.470764 75.72577 -27.854218z" fill-rule="evenodd"></path><path fill="#ffffff" d="m362.75836 378.8942l0 0c0 23.88971 -34.564545 43.256134 -77.20206 43.256134c-42.637512 0 -77.20206 -19.366425 -77.20206 -43.256134l21.628067 0c0 11.944855 24.881317 21.628082 55.57399 21.628082c30.692657 0 55.574005 -9.683228 55.574005 -21.628082z" fill-rule="evenodd"></path><path fill="#ffffff" d="m330.39557 351.49658l0 0c0 18.259003 -20.075226 33.06082 -44.839264 33.06082c-24.764038 0 -44.839264 -14.801819 -44.839264 -33.06082l16.530426 0c0 9.129517 12.674286 16.530426 28.308838 16.530426c15.634552 0 28.308838 -7.4009094 28.308838 -16.530426z" fill-rule="evenodd"></path><path fill="#ffffff" d="m296.52863 338.04813l0 0c0 5.407196 -4.1823425 9.790619 -9.341522 9.790619l0 0c-2.4775085 0 -4.8535767 -1.0315247 -6.605438 -2.8676147c-1.7518616 -1.8360901 -2.7360535 -4.3263855 -2.7360535 -6.923004l0 0c0 -5.407196 4.182312 -9.790619 9.341492 -9.790619l0 0c5.1591797 0 9.341522 4.383423 9.341522 9.790619z" fill-rule="evenodd"></path></g></svg>

