<?xml version="1.0" standalone="yes"?>

<svg version="1.1" viewBox="0.0 0.0 960.0 720.0" fill="none" stroke="none" stroke-linecap="square" stroke-miterlimit="10" xmlns="http://www.w3.org/2000/svg" xmlns:xlink="http://www.w3.org/1999/xlink"><clipPath id="p.0"><path d="m0 0l960.0 0l0 720.0l-960.0 0l0 -720.0z" clip-rule="nonzero"></path></clipPath><g clip-path="url(#p.0)"><path fill="#000000" fill-opacity="0.0" d="m0 0l960.0 0l0 720.0l-960.0 0z" fill-rule="evenodd"></path><path fill="#434343" d="m-14.692913 -1.3412074l1006.77167 0l0 745.70074l-1006.77167 0z" fill-rule="evenodd"></path><path fill="#529fdb" d="m115.437195 267.40344l0 0c0 -39.148407 38.398773 -70.884476 85.76607 -70.884476l0 0c47.367294 0 85.76607 31.736069 85.76607 70.884476l0 0c0 39.148438 -38.398773 70.88449 -85.76607 70.88449l0 0c-47.367294 0 -85.76607 -31.736053 -85.76607 -70.88449z" fill-rule="evenodd"></path><path fill="#529fdb" d="m246.87328 248.8488l0 0c0 -45.05356 44.240585 -81.576675 98.8141 -81.576675l0 0c54.573486 0 98.81406 36.523117 98.81406 81.576675l0 0c0 45.053543 -44.24057 81.576675 -98.81406 81.576675l0 0c-54.573517 0 -98.8141 -36.523132 -98.8141 -81.576675z" fill-rule="evenodd"></path><path fill="#529fdb" d="m343.80896 362.8989l0 0c0 -45.05356 38.398804 -81.57666 85.76608 -81.57666l0 0c22.746582 0 44.561523 8.594635 60.645782 23.89325c16.084259 15.298584 25.1203 36.047943 25.1203 57.68341l0 0c0 45.05356 -38.398773 81.57669 -85.76608 81.57669l0 0c-47.36728 0 -85.76608 -36.523132 -85.76608 -81.57669z" fill-rule="evenodd"></path><path fill="#529fdb" d="m55.777016 362.8989l0 0c0 -45.05356 38.39878 -81.57666 85.766075 -81.57666l0 0c22.746582 0 44.56151 8.594635 60.645767 23.89325c16.084259 15.298584 25.1203 36.047943 25.1203 57.68341l0 0c0 45.05356 -38.398773 81.57669 -85.76607 81.57669l0 0c-47.367294 0 -85.766075 -36.523132 -85.766075 -81.57669z" fill-rule="evenodd"></path><path fill="#529fdb" d="m146.19858 356.67383l279.66116 0l0 87.80731l-279.66116 0z" fill-rule="evenodd"></path><path fill="#529fdb" d="m154.11903 294.46402l279.66113 0l0 87.80731l-279.66113 0z" fill-rule="evenodd"></path><path fill="#ffffff" d="m389.13757 535.70636l0 0c0 30.766907 -46.37433 55.708374 -103.579956 55.708374c-57.205627 0 -103.57994 -24.941467 -103.57994 -55.708374l27.854202 0c0 15.383423 33.903564 27.854187 75.72574 27.854187c41.822174 0 75.72577 -12.470764 75.72577 -27.854187z" fill-rule="evenodd"></path><path fill="#ffffff" d="m362.75836 504.93884l0 0c0 23.88971 -34.564545 43.256104 -77.20206 43.256104c-42.637512 0 -77.20206 -19.366394 -77.20206 -43.256104l21.628067 0c0 11.944824 24.881317 21.628052 55.57399 21.628052c30.692657 0 55.574005 -9.683228 55.574005 -21.628052z" fill-rule="evenodd"></path><path fill="#ffffff" d="m330.39557 477.5412l0 0c0 18.259003 -20.075226 33.06082 -44.839264 33.06082c-24.764038 0 -44.839264 -14.801819 -44.839264 -33.06082l16.530426 0c0 9.129517 12.674286 16.530426 28.308838 16.530426c15.634552 0 28.308838 -7.4009094 28.308838 -16.530426z" fill-rule="evenodd"></path><path fill="#ffffff" d="m296.52863 464.09274l0 0c0 5.407196 -4.1823425 9.790619 -9.341522 9.790619l0 0c-2.4775085 0 -4.8535767 -1.0315247 -6.605438 -2.8676147c-1.7518616 -1.8360901 -2.7360535 -4.3263855 -2.7360535 -6.923004l0 0c0 -5.407196 4.182312 -9.790619 9.341492 -9.790619l0 0c5.1591797 0 9.341522 4.383423 9.341522 9.790619z" fill-rule="evenodd"></path></g></svg>

