<?xml version="1.0" standalone="no"?>
<!DOCTYPE svg PUBLIC "-//W3C//DTD SVG 20010904//EN"
 "http://www.w3.org/TR/2001/REC-SVG-20010904/DTD/svg10.dtd">
<svg version="1.0" xmlns="http://www.w3.org/2000/svg"
 width="612.000000pt" height="612.000000pt" viewBox="0 0 612.000000 612.000000"
 preserveAspectRatio="xMidYMid meet">

<g transform="translate(0.000000,612.000000) scale(0.100000,-0.100000)"
fill="#000000" stroke="none">
<path d="M3215 5321 c-75 -35 -125 -114 -125 -200 0 -84 80 -181 165 -198 l36
-8 0 -359 c0 -396 0 -394 -64 -421 -18 -7 -85 -16 -149 -20 -102 -6 -120 -5
-147 11 -37 22 -37 22 -70 163 l-26 114 27 28 c70 70 -14 176 -102 129 -59
-32 -32 -150 35 -150 18 0 25 -7 30 -32 24 -118 50 -216 62 -235 8 -12 30 -29
49 -38 32 -15 48 -15 167 -4 126 12 132 14 167 45 l35 32 3 371 3 371 25 0
c50 0 123 50 152 105 40 78 36 152 -13 223 -58 85 -167 116 -260 73z m183 -63
c31 -31 2 -84 -42 -76 -22 4 -25 1 -28 -34 -3 -34 0 -42 24 -56 15 -9 28 -23
28 -32 0 -12 -15 -15 -85 -15 -93 0 -105 9 -57 43 23 18 27 28 27 69 0 45 2
48 28 51 18 2 27 9 27 21 0 23 19 41 45 41 12 0 26 -5 33 -12z"/>
<path d="M3358 5241 c8 -4 14 -12 14 -16 0 -4 -6 -12 -14 -17 -10 -8 -10 -9 2
-5 23 6 26 47 3 47 -14 0 -15 -2 -5 -9z"/>
<path d="M4388 5009 c-52 -15 -113 -71 -133 -124 -27 -68 -17 -153 23 -210 18
-25 32 -48 32 -51 0 -3 -19 -31 -42 -62 -93 -127 -186 -253 -263 -357 -45 -60
-101 -136 -124 -167 -42 -58 -83 -88 -121 -88 -23 0 -129 51 -130 62 0 4 14
39 31 78 28 62 35 70 59 70 43 0 80 35 80 76 0 47 -13 69 -50 84 -35 15 -84 0
-100 -31 -17 -30 -11 -81 11 -105 l20 -22 -35 -70 -36 -71 -40 18 c-115 51
-119 80 -43 289 58 160 58 160 86 155 38 -8 111 22 141 58 38 45 52 100 37
149 -37 125 -184 169 -272 81 -49 -49 -67 -106 -50 -163 12 -40 61 -100 89
-109 10 -3 -1 -43 -42 -157 -31 -84 -56 -169 -56 -188 0 -52 27 -90 87 -121
29 -16 53 -32 53 -36 0 -14 -30 -67 -38 -67 -4 1 -18 7 -32 15 -14 8 -34 14
-45 14 -12 0 1 -10 29 -22 l50 -23 -30 -23 c-33 -26 -70 -25 -174 5 -87 24
-268 24 -360 0 -90 -25 -193 -74 -267 -129 -34 -26 -73 -49 -87 -53 -38 -9
-93 14 -118 49 -12 18 -25 34 -28 37 -3 3 -31 41 -62 85 -31 44 -84 116 -117
160 l-60 80 24 25 c106 111 52 315 -94 359 -122 36 -248 -25 -286 -140 -60
-181 116 -348 295 -280 30 11 57 17 60 13 4 -4 67 -89 140 -190 77 -105 146
-190 161 -198 44 -22 101 -18 140 11 137 100 210 136 332 162 98 20 267 13
360 -17 75 -23 111 -21 151 11 34 26 49 21 147 -53 87 -65 136 -81 181 -57 19
10 198 173 273 247 2 2 14 -3 27 -12 74 -49 185 -18 226 64 12 24 22 56 22 70
0 36 -40 110 -71 133 -69 50 -185 23 -227 -52 -27 -48 -29 -115 -4 -156 l19
-30 -124 -120 c-69 -66 -139 -125 -156 -131 -43 -15 -79 -3 -146 49 -31 24
-73 53 -93 66 l-38 22 20 40 20 39 49 -30 c55 -34 122 -40 159 -14 13 9 61 67
108 130 123 166 240 326 322 437 72 97 72 97 100 83 109 -55 248 0 297 116 27
65 16 148 -27 210 -45 64 -157 100 -240 77z m97 -79 c9 -29 -3 -60 -24 -60
-13 0 -21 -11 -26 -32 -9 -39 -9 -32 0 -85 8 -50 -5 -56 -42 -21 -36 34 -31
78 17 133 22 25 40 55 40 66 0 25 27 25 35 -1z m45 -85 c0 -11 -11 -15 -40
-15 -29 0 -40 4 -40 15 0 11 11 15 40 15 29 0 40 -4 40 -15z m10 -40 c0 -11
-12 -15 -50 -15 -38 0 -50 4 -50 15 0 11 12 15 50 15 38 0 50 -4 50 -15z m-10
-40 c0 -11 -12 -15 -45 -15 -42 0 -54 7 -38 23 3 4 24 7 45 7 27 0 38 -4 38
-15z m-12 -42 c2 -9 -8 -13 -32 -13 -26 0 -36 4 -36 16 0 19 61 16 68 -3z
m-831 -15 c50 -47 12 -138 -58 -138 -18 0 -41 -7 -51 -17 -17 -15 -18 -15 -12
14 3 18 1 33 -5 37 -20 12 -13 78 11 103 28 30 83 31 115 1z m-1497 -413 l0
-125 -75 0 -75 0 1 48 c1 36 3 41 8 22 6 -23 11 -25 66 -25 l60 0 3 98 3 97
-65 0 c-63 0 -65 -1 -69 -27 -4 -26 -4 -26 -6 5 l-1 32 75 0 75 0 0 -125z
m-76 56 c15 -16 15 -22 4 -40 -13 -22 -38 -29 -38 -11 0 6 -11 10 -25 10 -18
0 -25 5 -25 20 0 15 7 20 25 20 14 0 25 5 25 10 0 16 15 12 34 -9z m-94 -41
c0 -5 11 -10 25 -10 16 0 25 -6 25 -15 0 -9 -9 -15 -25 -15 -17 0 -25 -6 -25
-17 0 -14 -4 -12 -25 7 -23 22 -24 25 -8 42 18 20 33 24 33 8z m2295 -125 c33
-32 31 -51 -6 -86 -33 -31 -51 -31 -97 -2 -28 17 -36 36 -28 66 12 49 92 62
131 22z"/>
<path d="M3592 4688 c-7 -7 -12 -24 -12 -38 0 -14 5 -31 12 -38 7 -7 24 -12
38 -12 43 0 62 37 44 84 -7 19 -64 22 -82 4z m54 -22 c19 -15 19 -15 -1 -30
-29 -22 -35 -20 -35 14 0 34 7 37 36 16z"/>
<path d="M2103 4193 c9 -2 23 -2 30 0 6 3 -1 5 -18 5 -16 0 -22 -2 -12 -5z"/>
<path d="M4215 4150 c-3 -5 1 -10 10 -10 9 0 13 5 10 10 -3 6 -8 10 -10 10 -2
0 -7 -4 -10 -10z"/>
<path d="M4250 4150 c0 -5 5 -10 10 -10 6 0 10 5 10 10 0 6 -4 10 -10 10 -5 0
-10 -4 -10 -10z"/>
<path d="M4280 4150 c0 -5 5 -10 10 -10 6 0 10 5 10 10 0 6 -4 10 -10 10 -5 0
-10 -4 -10 -10z"/>
<path d="M2323 4909 c-46 -13 -100 -71 -113 -119 -31 -115 62 -225 183 -218
l49 3 62 -145 c35 -80 91 -210 125 -290 35 -80 75 -158 90 -173 43 -44 89 -45
199 -8 61 21 121 34 177 38 86 6 129 23 58 23 -63 0 -160 -19 -259 -51 -87
-28 -95 -29 -128 -15 -19 8 -41 25 -50 38 -14 22 -108 232 -215 483 l-47 110
37 35 c108 103 51 275 -96 294 -22 3 -55 1 -72 -5z m115 -85 c79 -52 35 -179
-63 -179 -76 0 -120 69 -91 139 25 61 94 79 154 40z"/>
<path d="M2322 4814 c-9 -8 -12 -14 -6 -14 5 0 15 5 22 12 9 9 12 8 12 -5 0
-9 5 -17 10 -17 6 0 10 8 10 18 0 22 -23 24 -48 6z"/>
<path d="M2380 4805 c0 -8 7 -15 15 -15 9 0 12 6 9 15 -4 8 -10 15 -15 15 -5
0 -9 -7 -9 -15z"/>
<path d="M2415 4810 c3 -5 11 -10 16 -10 6 0 7 5 4 10 -3 6 -11 10 -16 10 -6
0 -7 -4 -4 -10z"/>
<path d="M2297 4783 c-13 -12 -7 -33 8 -33 8 0 15 9 15 20 0 20 -11 26 -23 13z"/>
<path d="M2432 4773 c5 -25 28 -28 28 -4 0 12 -6 21 -16 21 -9 0 -14 -7 -12
-17z"/>
<path d="M2337 4773 c-13 -12 -7 -23 13 -23 11 0 20 7 20 15 0 15 -21 21 -33
8z"/>
<path d="M2380 4765 c0 -8 9 -15 20 -15 11 0 20 7 20 15 0 8 -9 15 -20 15 -11
0 -20 -7 -20 -15z"/>
<path d="M2290 4731 c0 -20 13 -41 21 -35 15 9 10 44 -6 44 -8 0 -15 -4 -15
-9z"/>
<path d="M2332 4728 c7 -19 38 -22 38 -4 0 10 -9 16 -21 16 -12 0 -19 -5 -17
-12z"/>
<path d="M2380 4725 c0 -8 9 -15 20 -15 11 0 20 7 20 15 0 8 -9 15 -20 15 -11
0 -20 -7 -20 -15z"/>
<path d="M2437 4733 c-13 -12 -7 -33 8 -33 8 0 15 9 15 20 0 20 -11 26 -23 13z"/>
<path d="M2350 4684 c0 -14 -2 -15 -17 -3 -14 12 -16 12 -11 -1 7 -23 48 -21
48 1 0 11 -4 19 -10 19 -5 0 -10 -7 -10 -16z"/>
<path d="M2380 4680 c0 -11 2 -20 5 -20 2 0 9 9 15 20 9 16 8 20 -5 20 -8 0
-15 -9 -15 -20z"/>
<path d="M2415 4679 c-11 -17 1 -21 15 -4 8 9 8 15 2 15 -6 0 -14 -5 -17 -11z"/>
<path d="M1355 4043 c-46 -24 -66 -45 -86 -88 -50 -109 8 -235 122 -265 46
-13 112 -2 153 25 22 15 27 11 131 -92 111 -112 140 -155 129 -198 -3 -14 -40
-65 -80 -113 -41 -48 -80 -99 -87 -114 -6 -16 -16 -28 -20 -28 -8 0 -82 57
-478 365 -56 44 -107 83 -112 87 -6 4 -4 21 7 47 32 81 15 160 -46 217 -58 55
-113 71 -183 53 -183 -46 -202 -299 -28 -375 63 -27 158 -11 208 36 20 19 22
17 262 -168 132 -103 268 -207 302 -232 52 -38 60 -49 56 -70 -5 -23 -4 -23 8
-7 9 11 28 17 53 17 52 1 71 13 144 93 34 37 81 81 105 97 24 16 48 43 55 62
18 46 90 145 139 192 42 41 58 85 47 130 -3 13 -26 52 -52 86 -42 57 -45 64
-34 90 13 32 2 63 -30 80 -40 22 -99 -27 -85 -71 8 -24 48 -51 71 -47 11 2 34
-19 65 -60 42 -54 49 -70 49 -108 0 -40 -5 -50 -66 -115 -36 -40 -80 -102 -99
-138 -19 -40 -44 -72 -59 -80 -14 -8 -63 -53 -109 -101 -62 -64 -93 -89 -117
-94 -54 -10 -58 7 -17 67 20 29 57 75 82 102 52 57 65 83 65 128 0 43 -15 64
-138 188 l-104 107 20 28 c60 86 15 229 -85 270 -43 18 -121 17 -158 -3z m138
-102 c30 -6 32 -9 29 -41 -5 -46 -42 -111 -68 -121 -14 -5 -29 -2 -44 8 -27
19 -59 87 -60 126 0 23 4 27 29 27 16 0 34 7 41 15 10 12 16 13 26 4 8 -6 29
-15 47 -18z m-523 -81 c0 -5 -6 -10 -14 -10 -17 0 -40 -107 -30 -144 8 -35
-20 -65 -47 -48 -25 16 -66 15 -72 0 -3 -9 -9 -10 -21 -3 -33 19 -11 30 62 30
39 0 72 2 72 5 -1 21 -24 29 -85 32 l-70 3 -9 38 c-6 23 -6 41 0 46 10 10 76
20 135 20 28 1 38 6 42 21 5 20 37 29 37 10z"/>
<path d="M1417 3923 c-11 -10 -8 -111 3 -118 6 -4 10 18 10 59 0 66 -1 72 -13
59z"/>
<path d="M1450 3863 c0 -48 3 -63 10 -53 13 20 13 107 0 115 -6 4 -10 -19 -10
-62z"/>
<path d="M1377 3913 c-2 -5 -1 -19 4 -33 7 -23 7 -23 8 8 1 31 -3 40 -12 25z"/>
<path d="M1488 3914 c-5 -4 -8 -21 -8 -38 1 -26 2 -28 11 -13 11 19 8 63 -3
51z"/>
<path d="M874 3800 c3 -14 6 -35 6 -47 0 -13 4 -23 9 -23 12 0 2 71 -12 85 -6
7 -8 2 -3 -15z"/>
<path d="M900 3794 c0 -14 4 -23 10 -19 6 3 10 15 10 26 0 10 -4 19 -10 19 -5
0 -10 -12 -10 -26z"/>
<path d="M791 3785 c0 -16 4 -37 9 -45 8 -12 10 -10 9 10 0 14 -4 34 -9 45 -7
17 -9 16 -9 -10z"/>
<path d="M817 3783 c7 -40 13 -57 19 -50 7 7 -7 77 -16 77 -4 0 -5 -12 -3 -27z"/>
<path d="M847 3778 c3 -18 10 -37 16 -43 6 -7 8 -2 3 15 -3 14 -6 33 -6 43 0
9 -4 17 -10 17 -5 0 -7 -14 -3 -32z"/>
<path d="M766 3773 c10 -40 14 -41 14 -5 0 18 -5 32 -10 32 -6 0 -8 -11 -4
-27z"/>
<path d="M4782 4003 c-67 -33 -113 -128 -94 -196 l9 -32 -116 -50 c-64 -27
-147 -64 -186 -81 -98 -45 -313 -134 -323 -134 -4 0 -18 26 -31 59 -33 83 -22
121 46 169 26 18 39 21 74 16 34 -6 45 -4 56 11 27 39 14 75 -34 89 -28 9 -67
-27 -60 -55 4 -15 -4 -24 -34 -40 -75 -38 -98 -115 -59 -200 27 -59 26 -64
-18 -81 l-38 -15 -23 56 c-27 68 -69 141 -80 141 -4 0 14 -44 41 -97 l49 -98
-26 -3 c-40 -5 -69 20 -125 107 -47 73 -178 211 -200 211 -5 0 28 -37 74 -82
46 -46 96 -105 111 -133 44 -79 82 -113 131 -121 41 -6 43 -8 55 -55 10 -38
18 -51 42 -60 16 -7 56 -32 89 -56 57 -42 58 -44 43 -65 -21 -31 -19 -88 6
-123 75 -110 117 -254 106 -372 -7 -71 3 -106 40 -145 30 -32 27 -45 -31 -141
-44 -72 -143 -180 -157 -171 -5 3 -9 25 -9 49 0 34 7 52 28 77 42 49 74 98 65
98 -9 0 -76 -84 -100 -125 -15 -24 -16 -74 -3 -95 7 -11 -2 -25 -37 -56 -40
-35 -47 -47 -52 -89 l-6 -48 -65 -23 c-36 -12 -55 -23 -44 -23 12 -1 41 6 64
14 23 8 46 15 49 15 4 0 29 -36 56 -80 l48 -80 -21 -23 c-57 -60 -53 -146 9
-201 33 -31 46 -36 87 -36 86 0 142 56 142 142 0 88 -69 146 -161 135 l-47 -6
-35 57 c-64 106 -64 98 -10 126 27 14 62 34 78 45 l30 19 110 -121 c61 -66
160 -175 220 -242 61 -66 118 -130 128 -141 17 -21 17 -23 -8 -69 -69 -131 17
-275 165 -275 61 0 96 17 138 64 27 31 52 89 52 121 0 60 -60 148 -117 171
-49 21 -122 17 -162 -7 -18 -11 -37 -17 -42 -12 -65 67 -468 520 -466 524 5
16 91 80 113 85 46 12 79 -8 177 -105 l99 -98 -17 -33 c-35 -68 -11 -157 51
-191 38 -20 109 -16 142 8 79 57 78 176 -2 228 -38 25 -90 29 -127 11 l-33
-16 -106 105 c-104 102 -108 105 -151 104 -56 -1 -67 -5 -120 -52 l-44 -39
-28 32 -28 32 53 53 c59 57 118 141 149 210 20 45 21 46 57 39 20 -4 38 -8 40
-9 2 -2 -3 -26 -12 -54 -26 -88 3 -143 98 -185 40 -18 52 -28 53 -47 2 -27 36
-59 62 -59 33 0 61 30 61 65 0 55 -61 85 -100 50 -16 -14 -22 -14 -61 1 -24 9
-57 30 -74 46 -25 24 -30 36 -29 76 0 26 6 60 13 76 l12 29 77 -7 c137 -12
139 -13 146 -57 9 -57 64 -114 124 -128 142 -34 252 112 181 239 -40 71 -147
102 -219 65 -34 -17 -80 -74 -80 -98 0 -12 -9 -17 -29 -17 -31 0 -184 20 -189
24 -5 6 21 112 35 139 7 15 29 35 47 44 31 14 51 14 242 -1 115 -9 237 -19
270 -23 l62 -6 6 -38 c13 -83 122 -152 202 -130 87 24 138 87 138 171 -1 152
-187 226 -294 117 -17 -17 -35 -48 -41 -68 -11 -35 -13 -37 -48 -32 -165 19
-498 39 -526 32 -48 -13 -82 -59 -95 -126 -17 -87 -15 -85 -57 -77 -21 4 -39
8 -41 9 -1 1 4 42 13 90 8 48 15 107 15 131 0 55 17 92 51 109 14 8 75 19 134
25 103 10 108 10 127 -10 24 -25 60 -26 83 0 41 45 -18 110 -70 76 -14 -9 -25
-22 -25 -29 0 -9 -34 -16 -118 -23 -172 -14 -191 -33 -203 -191 -4 -57 -13
-119 -19 -139 l-12 -36 -27 26 c-25 25 -26 32 -32 164 -7 156 -18 198 -86 314
-42 73 -44 80 -33 113 6 19 16 35 21 35 5 0 28 -26 52 -57 70 -95 109 -131
151 -138 32 -7 74 5 292 84 l254 92 38 -40 c106 -111 276 -46 276 105 0 88
-67 154 -156 154 -88 0 -148 -59 -158 -154 l-5 -50 -240 -88 c-132 -49 -256
-89 -277 -90 -47 -1 -88 29 -137 100 -21 31 -48 65 -60 76 -11 10 -18 22 -16
27 6 8 78 49 227 128 l97 51 16 -24 c37 -56 146 -72 204 -28 85 63 83 199 -4
251 -45 27 -83 33 -124 20 -74 -23 -118 -93 -108 -168 5 -44 17 -34 -148 -121
-66 -35 -132 -72 -147 -82 l-28 -19 -42 34 c-24 19 -64 46 -89 61 -33 19 -48
35 -52 54 -3 15 -8 34 -12 43 -4 10 5 20 30 32 39 19 55 16 55 -11 0 -9 5 -24
11 -32 7 -11 9 -3 7 29 l-3 45 85 36 c47 20 185 80 308 133 123 54 225 97 228
97 2 0 4 -6 4 -13 0 -36 90 -87 155 -87 107 0 185 76 185 180 0 73 -42 138
-107 166 -43 19 -120 17 -161 -3z m126 -89 c12 -8 22 -21 22 -29 0 -7 9 -17
21 -20 15 -5 19 -14 17 -33 -4 -34 -32 -36 -36 -3 -3 20 -8 23 -37 18 -19 -3
-38 0 -44 6 -10 9 -19 5 -41 -20 -30 -34 -50 -29 -50 13 0 20 17 33 42 34 4 0
19 12 32 25 29 29 43 31 74 9z m-51 -85 c8 -8 8 -20 3 -34 -5 -13 -6 -26 -3
-29 4 -3 -3 -6 -14 -6 -24 0 -38 47 -21 68 13 15 21 15 35 1z m63 -13 c0 -13
5 -26 11 -28 6 -2 3 -10 -8 -20 -16 -14 -20 -15 -37 -2 -16 11 -17 17 -8 26 7
7 12 20 12 30 0 10 7 18 15 18 9 0 15 -9 15 -24z m-212 -313 c-3 -64 -4 -68
-27 -68 -33 0 -38 22 -8 36 18 8 24 18 23 40 -1 32 -1 32 -43 23 -27 -5 -29
-9 -30 -56 0 -48 -14 -72 -38 -65 -20 7 -17 38 4 44 18 4 21 13 21 54 0 46 1
48 33 52 73 9 68 14 65 -60z m424 -170 c27 -33 29 -54 6 -99 -12 -24 -29 -51
-39 -60 -15 -14 -19 -11 -48 32 -36 55 -39 96 -11 124 25 25 72 26 92 3z m163
-576 c11 0 27 3 35 7 19 8 46 -12 55 -41 5 -17 -3 -33 -36 -68 -23 -25 -48
-45 -55 -45 -23 0 -94 75 -94 100 0 34 29 63 55 54 11 -3 29 -7 40 -7z m-376
-171 c25 -30 -16 -64 -64 -52 -52 13 -36 66 20 66 18 0 38 -6 44 -14z m-78
-100 c-3 -32 1 -42 20 -57 13 -10 22 -20 19 -22 -3 -3 -33 -7 -67 -9 -67 -4
-83 9 -43 34 14 9 20 24 20 49 0 42 5 49 34 47 18 -2 21 -7 17 -42z m-672
-330 c-24 -19 -128 -76 -138 -76 -10 0 -12 10 -8 38 5 27 17 47 48 73 l42 37
30 -34 c16 -19 28 -36 26 -38z m555 -166 c49 0 51 -2 47 -64 -1 -17 -3 -31 -5
-33 -7 -8 -133 -9 -148 -1 -28 14 -24 81 5 101 14 10 28 12 39 6 9 -5 37 -9
62 -9z m-541 -152 c4 -10 8 -9 16 2 10 13 13 13 21 -2 6 -9 17 -15 25 -12 10
4 12 0 8 -15 -4 -15 -1 -21 12 -21 14 0 15 -3 6 -14 -6 -7 -8 -21 -5 -30 4
-11 2 -16 -7 -14 -8 2 -13 -5 -13 -15 1 -13 -3 -16 -16 -12 -11 4 -20 -1 -24
-12 -7 -17 -8 -17 -17 0 -8 14 -14 16 -25 6 -11 -9 -14 -7 -14 11 0 16 -4 20
-15 16 -12 -4 -14 0 -9 19 4 15 2 25 -5 25 -6 0 -11 5 -11 11 0 5 5 7 11 3 7
-4 9 2 7 17 -2 18 1 23 15 21 10 -2 17 3 17 13 0 18 16 20 23 3z m676 -264
l31 -6 0 -85 0 -85 -34 6 c-18 4 -45 2 -60 -4 -14 -5 -39 -7 -56 -4 l-30 7 0
84 0 85 38 -6 c20 -4 44 -2 52 4 18 12 19 12 59 4z"/>
<path d="M5062 3308 c-35 -35 10 -81 48 -50 19 16 21 22 11 40 -13 24 -40 29
-59 10z"/>
<path d="M4661 1966 c-8 -10 -11 -26 -7 -42 5 -20 12 -25 33 -22 14 2 31 11
37 21 23 36 -36 76 -63 43z m52 -25 c5 -22 -14 -34 -38 -25 -16 6 -20 26 -8
37 13 14 41 6 46 -12z"/>
<path d="M4162 1798 c-27 -27 -6 -68 35 -68 29 0 48 33 33 60 -12 22 -49 27
-68 8z m46 -31 c2 -10 -3 -17 -12 -17 -18 0 -29 16 -21 31 9 14 29 6 33 -14z"/>
<path d="M4829 1551 c21 -6 22 -8 8 -19 -12 -11 -18 -10 -28 1 -14 15 -53 11
-43 -4 3 -5 0 -17 -5 -26 -9 -15 -10 -13 -11 15 0 17 -4 32 -10 32 -5 0 -10
-18 -10 -39 0 -33 5 -44 33 -65 22 -17 40 -23 55 -19 19 5 20 7 8 17 -13 9
-11 15 9 41 16 19 25 25 25 15 0 -9 -5 -21 -12 -28 -8 -8 -8 -15 0 -25 7 -8 9
-17 5 -20 -3 -4 -1 -7 5 -7 8 0 12 22 12 64 0 66 -7 77 -48 75 -10 -1 -8 -4 7
-8z m-13 -45 c3 -8 0 -24 -6 -36 l-12 -22 -15 21 c-8 12 -12 28 -9 36 7 19 35
19 42 1z"/>
<path d="M4786 1502 c-3 -6 -1 -14 5 -17 15 -10 25 3 12 16 -7 7 -13 7 -17 1z"/>
<path d="M4730 1436 c0 -8 9 -18 21 -21 29 -10 31 -3 3 18 -20 15 -24 15 -24
3z"/>
<path d="M3080 3803 c-160 -28 -317 -124 -410 -253 -24 -33 -45 -60 -47 -60
-2 0 -27 7 -54 16 -72 24 -181 15 -253 -20 -78 -38 -148 -118 -172 -196 -18
-56 -23 -63 -72 -91 -29 -16 -75 -53 -102 -81 -253 -265 -126 -706 228 -792
60 -15 152 -16 847 -14 l780 3 57 23 c183 74 292 234 290 426 -1 128 -46 230
-139 317 -57 53 -92 75 -158 97 -56 19 -60 23 -63 54 -26 275 -232 506 -503
563 -66 14 -173 18 -229 8z m235 -65 c239 -50 444 -298 445 -540 0 -46 0 -46
39 -53 63 -11 157 -61 206 -110 26 -25 61 -76 78 -113 29 -61 32 -75 32 -167
0 -93 -2 -104 -34 -167 -63 -126 -173 -202 -320 -220 -45 -5 -391 -8 -802 -6
l-724 3 -60 24 c-118 47 -197 119 -247 227 -95 203 1 464 205 554 39 17 47 25
47 48 0 41 43 124 85 165 61 59 118 82 205 81 61 0 84 -5 127 -27 l51 -27 33
58 c46 83 152 181 240 224 130 63 248 77 394 46z"/>
<path d="M2328 3607 c-128 -45 -230 -138 -279 -255 -15 -36 -33 -58 -61 -77
-102 -68 -182 -169 -228 -290 -31 -82 -39 -244 -16 -333 21 -83 20 -131 -4
-162 l-19 -25 -25 58 c-32 71 -45 128 -55 233 -8 86 -26 123 -70 144 -19 9
-22 16 -17 40 3 17 1 30 -4 30 -5 0 -10 -10 -12 -22 -3 -23 -4 -23 -218 -26
l-216 -2 -12 44 c-23 87 -100 146 -193 146 -127 0 -218 -107 -198 -234 9 -57
28 -86 83 -130 50 -41 142 -49 203 -17 53 26 91 73 105 127 l12 44 211 0 210
0 0 -112 c1 -112 24 -240 47 -263 7 -7 9 -2 4 15 -39 148 -51 350 -21 350 18
0 55 -39 60 -65 2 -11 9 -60 15 -108 6 -49 25 -127 42 -173 16 -47 29 -86 27
-88 -7 -6 -278 -106 -287 -106 -5 0 -15 7 -22 15 -19 23 -76 19 -94 -7 -22
-32 -20 -55 9 -84 19 -19 31 -23 48 -18 31 9 57 34 57 54 0 19 13 25 194 92
l110 40 23 -28 c13 -16 23 -32 23 -36 0 -5 -271 -316 -356 -407 -11 -12 -18
-12 -47 3 -49 22 -138 21 -186 -4 -130 -66 -154 -236 -48 -336 86 -82 202 -82
289 1 76 72 84 203 18 279 l-29 32 22 25 c13 13 96 106 186 207 l163 183 38
-43 c21 -24 41 -40 45 -36 4 4 -8 24 -28 44 -20 21 -34 41 -31 46 3 4 23 8 46
8 32 0 52 -9 101 -46 72 -54 130 -85 207 -110 48 -15 107 -18 457 -23 l403 -6
27 -27 c23 -23 28 -38 31 -93 l4 -65 -147 0 -147 0 -39 -39 -39 -39 0 -205 0
-206 -42 -12 c-55 -14 -113 -72 -128 -128 -42 -158 137 -288 273 -197 40 27
73 76 81 121 16 83 -47 182 -132 204 l-42 12 0 193 c0 184 1 195 23 227 35 52
57 59 205 59 l132 0 0 -196 0 -196 -30 -28 c-36 -34 -38 -53 -5 -85 28 -29 51
-31 83 -9 31 21 29 68 -3 98 l-25 23 0 196 0 196 53 4 52 3 -51 2 -52 2 -4 53
c-5 64 -24 103 -61 131 -27 20 -43 21 -435 26 -381 6 -411 7 -463 27 -75 28
-103 44 -174 98 -65 49 -109 63 -153 47 -25 -9 -30 -6 -50 24 l-22 33 25 37
c29 42 31 78 10 149 -68 221 17 466 212 612 45 34 73 63 78 80 19 78 134 202
229 247 70 33 175 49 246 37 30 -5 57 -7 59 -5 12 11 -17 17 -101 21 -79 3
-103 0 -160 -20z m-1380 -593 c40 -19 47 -31 20 -30 -12 1 -23 -5 -26 -13 -3
-9 0 -11 8 -6 8 5 11 4 6 -3 -4 -6 -14 -8 -24 -5 -15 6 -15 5 -3 -10 7 -9 21
-17 30 -18 11 0 12 -2 3 -6 -7 -3 -19 1 -27 7 -12 10 -15 10 -15 -1 0 -7 -10
-3 -25 11 -22 21 -23 25 -10 40 18 20 19 37 3 43 -7 3 -4 6 8 6 11 1 35 -6 52
-15z m-104 -10 c21 -8 21 -24 0 -24 -9 0 -23 -8 -30 -17 -19 -27 -29 -7 -10
22 18 28 18 28 40 19z m26 -69 l23 -25 -24 -26 c-19 -21 -25 -23 -34 -11 -5 8
-20 17 -33 21 -31 10 -28 34 6 38 15 2 26 8 25 16 -4 19 12 14 37 -13z m150
-30 c0 -3 -6 -21 -14 -40 -17 -40 -68 -75 -110 -75 -35 0 -91 36 -105 67 -14
31 11 31 32 1 l15 -23 29 27 c34 32 68 29 77 -8 7 -26 24 -32 31 -11 19 54 26
67 35 67 5 0 10 -2 10 -5z m310 -1086 l0 -88 -72 -3 c-46 -2 -73 -7 -76 -15
-3 -10 18 -13 82 -13 l85 0 4 88 3 87 2 -97 2 -98 -90 0 c-108 0 -110 2 -110
119 0 103 8 111 101 110 l69 -1 0 -89z m1446 -452 c31 -27 28 -47 -10 -72 -48
-32 -136 -13 -153 32 -11 28 41 63 92 63 32 0 52 -7 71 -23z"/>
<path d="M1214 1844 c-19 -15 -19 -16 1 -8 11 4 29 7 40 7 11 0 29 -3 40 -7
20 -8 20 -7 1 8 -11 9 -29 16 -41 16 -12 0 -30 -7 -41 -16z"/>
<path d="M1224 1825 c-10 -8 -14 -15 -9 -16 66 -11 97 -3 69 18 -23 17 -36 16
-60 -2z m51 -5 c3 -6 -1 -7 -9 -4 -18 7 -21 14 -7 14 6 0 13 -4 16 -10z"/>
<path d="M1240 1780 c0 -5 7 -10 15 -10 8 0 15 5 15 10 0 6 -7 10 -15 10 -8 0
-15 -4 -15 -10z"/>
<path d="M2670 1364 c-10 -11 -11 -23 -4 -42 17 -48 84 -38 84 12 0 43 -53 63
-80 30z m49 -13 c17 -11 7 -41 -13 -41 -19 0 -29 17 -22 35 6 17 15 18 35 6z"/>
<path d="M3935 2262 c-79 -35 -82 -36 -251 -42 -187 -6 -209 -12 -239 -70 -9
-17 -19 -30 -23 -31 -4 0 -28 -2 -54 -4 -104 -7 -139 -48 -146 -167 -4 -72 -8
-85 -28 -101 -30 -23 -32 -69 -4 -97 23 -23 29 -24 65 -10 49 19 53 100 6 115
-19 6 -21 14 -21 81 0 120 37 164 140 164 l50 0 0 -405 0 -405 -22 0 c-27 0
-84 -33 -109 -63 -50 -61 -43 -165 15 -223 124 -124 332 -5 286 164 -14 53
-67 107 -117 119 l-38 9 -3 402 -2 402 52 0 c61 0 93 -14 120 -51 17 -23 20
-45 21 -192 1 -115 -1 -167 -9 -167 -31 0 -53 -55 -38 -95 15 -39 91 -38 112
2 15 28 2 73 -24 85 -22 10 -23 14 -26 185 l-3 175 -37 33 c-30 28 -47 35 -97
41 -34 3 -61 9 -61 13 1 12 35 49 57 60 12 6 71 11 135 11 150 0 228 14 316
55 39 19 72 36 72 40 0 8 -11 5 -95 -33z m-435 -1047 c14 -17 5 -51 -16 -59
-9 -3 -24 -1 -35 5 -27 14 -52 -6 -43 -35 11 -37 34 -57 55 -46 15 8 22 5 35
-15 9 -14 15 -27 13 -28 -2 -2 -16 -8 -31 -15 -24 -10 -31 -8 -59 15 -61 52
-80 148 -33 173 20 11 27 11 33 2 6 -10 11 -9 21 3 16 19 44 19 60 0z"/>
<path d="M3464 1195 c3 -8 0 -15 -6 -15 -6 0 -9 -3 -5 -6 3 -4 13 -4 21 -1 17
7 11 37 -6 37 -6 0 -8 -7 -4 -15z"/>
<path d="M1830 2171 c0 -5 13 -19 30 -31 l30 -21 -68 -130 c-60 -115 -70 -129
-93 -129 -32 0 -59 -28 -59 -63 0 -49 55 -79 95 -53 32 21 40 52 20 82 -15 24
-14 28 51 154 l66 129 47 -23 c25 -12 72 -33 105 -46 60 -24 96 -63 96 -104 0
-15 -79 -309 -136 -508 -4 -14 -16 -18 -47 -18 -214 -1 -272 -302 -75 -385 86
-35 180 -9 242 68 41 51 49 143 17 204 -21 43 -67 87 -101 98 -11 3 -20 12
-20 18 0 11 46 183 109 407 12 41 21 90 21 110 0 44 -32 97 -67 112 -84 34
-173 78 -173 86 0 13 47 32 81 32 16 0 45 -7 65 -15 57 -23 178 -45 255 -45
92 0 132 -18 153 -71 18 -44 22 -159 6 -159 -19 0 -50 -40 -50 -65 0 -14 9
-34 20 -45 11 -11 31 -20 45 -20 30 0 65 32 65 61 0 11 -13 34 -30 51 -27 27
-30 36 -30 95 0 121 -38 161 -157 168 -146 9 -186 16 -261 41 -81 28 -129 27
-162 -6 -18 -18 -19 -17 -54 6 -20 14 -36 20 -36 15z m236 -876 c9 -12 14 -44
14 -87 0 -93 -15 -108 -108 -108 -98 0 -107 9 -107 110 0 105 9 113 113 108
59 -3 77 -7 88 -23z"/>
<path d="M1900 1211 l0 -69 60 -4 c33 -1 65 -1 70 0 6 2 10 35 10 73 l0 69
-70 0 -70 0 0 -69z m85 24 l30 -25 -28 -25 c-15 -14 -32 -25 -36 -25 -4 0 -8
23 -7 50 0 28 2 50 5 50 3 0 20 -11 36 -25z"/>
<path d="M3879 2135 c-65 -18 -87 -34 -111 -84 -19 -40 -20 -49 -9 -90 14 -52
119 -351 215 -611 l64 -174 -30 -15 c-39 -19 -85 -91 -94 -147 -17 -117 78
-225 199 -226 127 -1 218 100 203 226 -12 106 -101 180 -209 174 -31 -2 -57
-2 -57 -2 0 1 -39 107 -86 235 -150 408 -194 540 -194 579 0 56 37 96 108 116
32 9 61 20 67 25 12 12 -8 10 -66 -6z m285 -1054 c13 -14 19 -43 23 -100 l6
-81 -78 0 -78 0 6 81 c4 57 10 86 23 100 23 25 75 25 98 0z"/>
<path d="M4086 1058 c-24 -33 -20 -38 29 -38 49 0 59 15 29 44 -21 22 -40 20
-58 -6z"/>
<path d="M4086 975 c-13 -35 20 -63 49 -41 25 18 11 56 -20 56 -12 0 -25 -7
-29 -15z m31 -27 c-3 -8 -6 -5 -6 6 -1 11 2 17 5 13 3 -3 4 -12 1 -19z"/>
</g>
</svg>
